
nColumns=19
nRows=51
DataType=double
version=3
OpenSimVersion=4.4-2022-10-11-798caa840
endheader
time	ground_force_calcn_r_vx	ground_force_calcn_r_vy	ground_force_calcn_r_vz	ground_force_calcn_r_px	ground_force_calcn_r_py	ground_force_calcn_r_pz	ground_force_calcn_r_mx	ground_force_calcn_r_my	ground_force_calcn_r_mz	ground_force_calcn_l_vx	ground_force_calcn_l_vy	ground_force_calcn_l_vz	ground_force_calcn_l_px	ground_force_calcn_l_py	ground_force_calcn_l_pz	ground_force_calcn_l_mx	ground_force_calcn_l_my	ground_force_calcn_l_mz
3.53	3.20118	597.937	-44.7134	-0.298889	0	-0.469681	-0.00598481	-1.11788	0.08359460000000001	-14.7884	278.591	44.3488	-0.092226	0	-0.886067	-0.174531	3.28789	0.5234
3.54	2.56794	586.994	-43.3012	-0.299556	0	-0.47005	-0.00543552	-1.24248	0.091655	-15.0372	273.107	42.4569	-0.09227580000000001	0	-0.886092	-0.181103	3.28922	0.511339
3.55	1.86158	574.509	-41.795	-0.300377	0	-0.470483	-0.00440468	-1.35935	0.0988912	-15.1753	266.943	40.4108	-0.0924852	0	-0.886054	-0.186574	3.28195	0.496833
3.56	1.03771	560.6079999999999	-40.2216	-0.301342	0	-0.470976	-0.00271225	-1.46526	0.105127	-15.1853	260.095	38.2327	-0.0928824	0	-0.885944	-0.190523	3.26331	0.47969
3.57	0.052187	545.508	-38.6077	-0.302437	0	-0.471525	-0.000149007	-1.55756	0.110235	-15.0577	252.61	35.9599	-0.0934939	0	-0.885758	-0.192596	3.23102	0.459947
3.58	-1.12611	529.528	-36.9792	-0.303649	0	-0.472129	0.00347568	-1.63437	0.114135	-14.7947	244.602	33.646	-0.0943445	0	-0.8854880000000001	-0.192564	3.18369	0.437929
3.59	-2.50179	513.093	-35.3619	-0.304968	0	-0.472786	0.00826326	-1.69472	0.116799	-14.4097	236.238	31.3585	-0.09545289999999999	0	-0.885137	-0.190365	3.1209	0.414271
3.6	-4.04553	496.723	-33.7824	-0.306394	0	-0.473495	0.0141601	-1.73863	0.118245	-13.9257	227.735	29.1735	-0.0968344	0	-0.884709	-0.186113	3.04359	0.389894
3.61	-5.69374	481.025	-32.2706	-0.307931	0	-0.474256	0.0209168	-1.76712	0.118551	-13.3692	219.328	27.1667	-0.09849570000000001	0	-0.884216	-0.180067	2.95409	0.365903
3.62	-7.35417	466.648	-30.8591	-0.309594	0	-0.475065	0.0280863	-1.78217	0.117854	-12.7627	211.261	25.4022	-0.100443	0	-0.883674	-0.172545	2.85614	0.343426
3.63	-8.91323	454.232	-29.5807	-0.311392	0	-0.475919	0.0350582	-1.78662	0.116349	-12.1184	203.76	23.9247	-0.102678	0	-0.8831020000000001	-0.163839	2.75479	0.323457
3.64	-10.2451	444.35	-28.463	-0.313328	0	-0.476804	0.0411367	-1.78418	0.114286	-11.4368	197.018	22.7546	-0.105199	0	-0.88252	-0.154182	2.65604	0.306759
3.65	-11.2236	437.434	-27.5246	-0.315387	0	-0.477703	0.0456517	-1.77925	0.111956	-10.7095	191.179	21.8884	-0.107999	0	-0.881945	-0.143757	2.56626	0.293816
3.66	-11.7405	433.742	-26.7783	-0.317536	0	-0.478588	0.0480908	-1.77667	0.109688	-9.92238	186.329	21.3026	-0.111059	0	-0.881395	-0.132671	2.49138	0.284835
3.67	-11.726	433.341	-26.2366	-0.319717	0	-0.479431	0.0482042	-1.78142	0.107856	-9.056229999999999	182.495	20.9594	-0.114348	0	-0.880885	-0.120898	2.43626	0.279803
3.68	-11.1579	436.137	-25.9138	-0.32186	0	-0.480195	0.0460035	-1.79816	0.106841	-8.08736	179.665	20.8123	-0.117823	0	-0.880421	-0.108225	2.40427	0.27851
3.69	-10.0551	441.894	-25.8208	-0.323894	0	-0.480854	0.0416611	-1.83089	0.106983	-6.99132	177.805	20.8124	-0.121443	0	-0.880004	-0.0942509	2.39701	0.280575
3.7	-8.459160000000001	450.272	-25.959	-0.325757	0	-0.481386	0.0353654	-1.88246	0.108527	-5.74785	176.885	20.9152	-0.125163	0	-0.87963	-0.078455	2.41438	0.285481
3.71	-6.412	460.842	-26.3147	-0.327404	0	-0.481781	0.0271919	-1.95433	0.111595	-4.34537	176.889	21.0847	-0.128945	0	-0.879288	-0.0603007	2.4547	0.292593
3.72	-3.94977	473.134	-26.8648	-0.328815	0	-0.482038	0.0170864	-2.04674	0.116215	-2.78372	177.82	21.2943	-0.132751	0	-0.87897	-0.0393731	2.51509	0.301188
3.73	-1.11253	486.705	-27.5823	-0.329985	0	-0.482165	0.004935	-2.15895	0.122351	-1.07451	179.685	21.5257	-0.136545	0	-0.8786620000000001	-0.0155002	2.59203	0.310516
3.74	2.04333	501.181	-28.4346	-0.33092	0	-0.482174	-0.0093331	-2.28919	0.129877	0.758776	182.477	21.7648	-0.140283	0	-0.878359	0.0111509	2.68166	0.319854
3.75	5.43972	516.275	-29.3773	-0.331635	0	-0.482084	-0.0256536	-2.43474	0.138543	2.68008	186.148	21.9984	-0.143916	0	-0.87806	0.0400306	2.78037	0.328575
3.76	8.98546	531.742	-30.3496	-0.332146	0	-0.481917	-0.0437986	-2.59192	0.147936	4.64023	190.607	22.2123	-0.147392	0	-0.877773	0.0702386	2.88519	0.336225
3.77	12.5926	547.336	-31.2771	-0.332473	0	-0.481694	-0.06341529999999999	-2.75634	0.157509	6.57794	195.722	22.3935	-0.150656	0	-0.877505	0.100619	2.99384	0.342539
3.78	16.1866	562.789	-32.0846	-0.332631	0	-0.481432	-0.0840881	-2.92364	0.166677	8.42404	201.354	22.5329	-0.153668	0	-0.877268	0.12989	3.10467	0.347435
3.79	19.7024	577.819	-32.7135	-0.332641	0	-0.481148	-0.105362	-3.08998	0.17494	10.1096	207.375	22.6285	-0.156395	0	-0.877075	0.156817	3.21674	0.351008
3.8	23.0698	592.158	-33.133	-0.332507	0	-0.480848	-0.126707	-3.25234	0.181978	11.5734	213.671	22.6845	-0.15882	0	-0.876936	0.18036	3.32986	0.353516
3.81	26.2017	605.553	-33.3384	-0.332238	0	-0.480533	-0.147487	-3.4086	0.187659	12.7657	220.134	22.7079	-0.160937	0	-0.876858	0.199739	3.44432	0.355299
3.82	28.9968	617.748	-33.3436	-0.331827	0	-0.4802	-0.166974	-3.5572	0.192004	13.6485	226.65	22.7038	-0.162752	0	-0.876844	0.214418	3.56069	0.356678
3.83	31.3596	628.494	-33.1738	-0.331275	0	-0.479844	-0.18445	-3.69665	0.19512	14.1971	233.115	22.6728	-0.16427	0	-0.876894	0.224108	3.67983	0.357901
3.84	33.2242	637.585	-32.8598	-0.330575	0	-0.479462	-0.199334	-3.8253	0.197148	14.405	239.451	22.6134	-0.165508	0	-0.877008	0.228758	3.80259	0.35911
3.85	34.5698	644.915	-32.4309	-0.32973	0	-0.479047	-0.211272	-3.94138	0.1982	14.2834	245.625	22.5276	-0.166481	0	-0.877181	0.228517	3.92968	0.360413
3.86	35.4231	650.513	-31.9056	-0.328742	0	-0.478598	-0.220171	-4.04324	0.198308	13.857	251.638	22.4252	-0.167208	0	-0.877414	0.223679	4.06193	0.361986
3.87	35.8432	654.544	-31.287	-0.327618	0	-0.47812	-0.226136	-4.12955	0.197391	13.1574	257.518	22.3234	-0.167701	0	-0.877708	0.214603	4.20022	0.364104
3.88	35.9017	657.29	-30.5625	-0.326368	0	-0.477618	-0.229383	-4.19955	0.195269	12.2173	263.296	22.2418	-0.167977	0	-0.878063	0.201638	4.34552	0.367085
3.89	35.6686	659.088	-29.7101	-0.325002	0	-0.477104	-0.230177	-4.25325	0.191726	11.0679	268.992	22.195	-0.168045	0	-0.878481	0.185104	4.49872	0.371198
3.9	35.2065	660.275	-28.7098	-0.323533	0	-0.476585	-0.228825	-4.29147	0.1866	9.74028	274.611	22.1909	-0.167924	0	-0.878963	0.165305	4.66049	0.376607
3.91	34.5718	661.13	-27.5557	-0.321976	0	-0.476071	-0.225684	-4.31585	0.179883	8.26712	280.146	22.2301	-0.167628	0	-0.879505	0.142566	4.83109	0.383355
3.92	33.8126	661.856	-26.2634	-0.320345	0	-0.475567	-0.221134	-4.32853	0.171763	6.68504	285.587	22.3099	-0.167179	0	-0.880103	0.117287	5.01054	0.391419
3.93	32.9622	662.587	-24.8689	-0.318652	0	-0.475074	-0.215503	-4.33191	0.16259	5.03471	290.922	22.4273	-0.166599	0	-0.88075	0.0899726	5.19891	0.400787
3.94	32.0382	663.393	-23.4175	-0.316907	0	-0.47459	-0.20903	-4.32824	0.152785	3.35742	296.139	22.5816	-0.165916	0	-0.88144	0.0611796	5.39631	0.411487
3.95	31.0478	664.289	-21.9526	-0.315119	0	-0.474111	-0.201881	-4.31939	0.142742	1.69031	301.216	22.772	-0.165151	0	-0.882163	0.0314389	5.60248	0.423548
3.96	29.9967	665.266	-20.5094	-0.313297	0	-0.473636	-0.194199	-4.30693	0.132778	0.0660352	306.108	22.9937	-0.164329	0	-0.882916	0.00125477	5.81651	0.436914
3.97	28.8997	666.321	-19.1119	-0.311448	0	-0.473161	-0.186169	-4.29237	0.123117	-1.48425	310.749	23.2362	-0.163468	0	-0.883687	-0.0288334	6.03667	0.451391
3.98	27.7866	667.458	-17.771	-0.309585	0	-0.472689	-0.178057	-4.27709	0.113877	-2.93242	315.069	23.4873	-0.162582	0	-0.884473	-0.058269	6.26062	0.466708
3.99	26.7009	668.673	-16.4874	-0.30772	0	-0.472219	-0.170197	-4.26227	0.105094	-4.25852	319.012	23.739	-0.161679	0	-0.8852680000000001	-0.0865773	6.48564	0.482622
4	25.6929	669.9299999999999	-15.2602	-0.305863	0	-0.471753	-0.162954	-4.24894	0.0967855	-5.45345	322.543	23.9891	-0.160767	0	-0.886069	-0.113429	6.70872	0.498961
4.01	24.8057	671.169	-14.0943	-0.304025	0	-0.47129	-0.156636	-4.2381	0.0889986	-6.51726	325.642	24.2386	-0.159841	0	-0.886875	-0.138627	6.92666	0.515574
4.02	24.0652	672.304	-13.0038	-0.302206	0	-0.470825	-0.151434	-4.23058	0.0818285	-7.45513	328.302	24.4883	-0.158903	0	-0.887682	-0.162051	7.13624	0.532299
4.03	23.4816	673.2430000000001	-12.0102	-0.300406	0	-0.470353	-0.147426	-4.22688	0.0754045	-8.27355	330.522	24.7389	-0.157947	0	-0.888487	-0.183589	7.33424	0.548953
